<svg t="1691745080396" class="icon" viewBox="0 0 1024 1024" version="1.1" xmlns="http://www.w3.org/2000/svg" p-id="3754">
    <path
        d="M943.36 574.72l-368.64 368.768a166.976 166.976 0 0 1-235.392 0l-2.816-2.816a166.912 166.912 0 0 1 0-235.328l368.832-368.832a166.848 166.848 0 0 1 235.328 0l2.816 2.816a166.848 166.848 0 0 1-0.064 235.328z"
        fill="#FFCA00" p-id="3755"></path>
    <path
        d="M611.968 693.44l-177.152 177.28a197.312 197.312 0 0 1-278.144 0l-3.328-3.392a197.248 197.248 0 0 1 0-278.144l84.608-84.48a25.856 25.856 0 0 1 43.712 13.888c2.368 13.376 5.76 26.56 10.112 39.424a25.856 25.856 0 0 1-6.208 26.56l-68.48 68.48a106.56 106.56 0 0 0 0 150.528l3.328 3.328a106.688 106.688 0 0 0 150.656 0l177.28-177.216a106.624 106.624 0 0 0 0-150.592l-3.392-3.328-0.192-0.192a25.984 25.984 0 0 1-0.256-36.864l27.2-27.2a25.792 25.792 0 0 1 36.992 0.512l3.264 3.264a197.376 197.376 0 0 1 0 278.144z"
        fill="#0064C8" p-id="3756"></path>
    <path
        d="M870.592 434.816l-84.608 84.48a25.792 25.792 0 0 1-43.648-13.824 272.896 272.896 0 0 0-10.112-39.424 25.856 25.856 0 0 1 6.272-26.56l68.416-68.48c41.536-41.472 41.536-109.056 0-150.592l-3.328-3.2a106.496 106.496 0 0 0-150.528 0l-177.28 177.152a106.624 106.624 0 0 0 0 150.656l3.2 3.2 0.256 0.192c10.24 10.24 10.496 26.688 0.256 36.864l-27.136 27.2a25.792 25.792 0 0 1-37.12-0.512l-3.2-3.2a197.248 197.248 0 0 1 0-278.144l177.152-177.28a197.248 197.248 0 0 1 278.144 0l3.328 3.328a197.12 197.12 0 0 1-0.064 278.144z"
        fill="#0064C8" p-id="3757"></path>
</svg>