<svg t="1690787101895" class="icon" viewBox="0 0 1024 1024" version="1.1" xmlns="http://www.w3.org/2000/svg" p-id="9995">
    <path
        d="M797.186048 564.1216a39.424 39.424 0 1 1 78.848 0v385.4336a39.424 39.424 0 0 1-39.424 39.424H187.394048a39.424 39.424 0 0 1-39.3216-39.424V564.1216a39.3216 39.3216 0 1 1 78.6432 0v346.0096h126.6688V521.5232a23.7568 23.7568 0 0 1 23.6544-23.6544h269.9264a23.6544 23.6544 0 0 1 23.552 23.6544v388.608h126.6688V564.1216zM400.590848 910.1312h222.72V545.0752H400.590848v365.056zM67.278848 574.7712a39.424 39.424 0 0 1-55.7056-55.808L484.149248 46.4896a39.6288 39.6288 0 0 1 55.7056 0l0.7168 0.8192 471.9616 471.6544a39.424 39.424 0 1 1-55.7056 55.808L512.002048 130.048 67.278848 574.7712z"
        p-id="9996" data-spm-anchor-id="a313x.7781069.0.i1" class="selected" fill="#1296db"></path>
</svg>