<svg t="1691736511205" class="icon" viewBox="0 0 1024 1024" version="1.1" xmlns="http://www.w3.org/2000/svg" p-id="3977">
    <path d="M128 192m64 0l640 0q64 0 64 64l0 0q0 64-64 64l-640 0q-64 0-64-64l0 0q0-64 64-64Z" fill="#ffffff"
        p-id="3978" data-spm-anchor-id="a313x.search_index.0.i3.74793a81QySrze" class="selected"></path>
    <path d="M128 448m64 0l640 0q64 0 64 64l0 0q0 64-64 64l-640 0q-64 0-64-64l0 0q0-64 64-64Z" fill="#ffffff"
        p-id="3979" data-spm-anchor-id="a313x.search_index.0.i1.74793a81QySrze" class="selected"></path>
    <path d="M128 704m64 0l640 0q64 0 64 64l0 0q0 64-64 64l-640 0q-64 0-64-64l0 0q0-64 64-64Z" fill="#ffffff"
        p-id="3980" data-spm-anchor-id="a313x.search_index.0.i2.74793a81QySrze" class="selected"></path>
</svg>