<?xml version="1.0" standalone="no"?>
<!DOCTYPE svg PUBLIC "-//W3C//DTD SVG 20010904//EN"
 "http://www.w3.org/TR/2001/REC-SVG-20010904/DTD/svg10.dtd">
<svg version="1.0" xmlns="http://www.w3.org/2000/svg"
 width="24.000000pt" height="24.000000pt" viewBox="0 0 256.000000 256.000000"
 preserveAspectRatio="xMidYMid meet">
<metadata>
Created by potrace 1.16, written by Peter Selinger 2001-2019
</metadata>
<g transform="translate(0.000000,256.000000) scale(0.100000,-0.100000)"
fill="#000000" stroke="none">
<path d="M298 2304 c-57 -30 -58 -37 -58 -466 0 -423 0 -423 53 -462 28 -21
38 -21 430 -21 367 0 404 2 428 18 54 36 54 38 54 468 0 388 -1 398 -21 426
-39 53 -39 53 -464 52 -330 0 -399 -2 -422 -15z m766 -136 c14 -19 16 -68 16
-335 0 -300 -1 -314 -20 -333 -19 -19 -33 -20 -333 -20 -267 0 -316 2 -335 16
-22 15 -22 16 -22 339 0 281 2 326 16 339 13 14 58 16 339 16 323 0 324 0 339
-22z"/>
<path d="M1421 2307 c-13 -6 -34 -25 -45 -40 -20 -28 -21 -38 -21 -426 0 -430
0 -432 54 -468 24 -16 61 -18 428 -18 392 0 402 0 430 21 53 39 53 39 53 462
0 431 -1 436 -60 467 -24 13 -90 15 -422 15 -292 0 -399 -3 -417 -13z m753
-133 c14 -13 16 -58 16 -339 0 -323 0 -324 -22 -339 -19 -14 -68 -16 -335 -16
-300 0 -314 1 -333 20 -19 19 -20 33 -20 333 0 267 2 316 16 335 15 22 16 22
339 22 281 0 326 -2 339 -16z"/>
<path d="M324 1200 c-16 -5 -41 -21 -55 -36 l-24 -26 -3 -404 c-2 -349 -1
-408 13 -434 31 -59 35 -60 467 -60 423 0 423 0 462 53 20 28 21 38 21 426 0
430 0 432 -54 468 -24 16 -62 18 -411 20 -212 1 -399 -2 -416 -7z m736 -140
c19 -19 20 -33 20 -333 0 -267 -2 -316 -16 -335 -15 -22 -16 -22 -339 -22
-281 0 -326 2 -339 16 -14 13 -16 58 -16 339 0 323 0 324 22 339 19 14 68 16
335 16 300 0 314 -1 333 -20z"/>
<path d="M1443 1203 c-39 -8 -81 -59 -88 -106 -3 -23 -5 -207 -3 -409 3 -354
4 -368 24 -395 39 -53 40 -53 462 -53 332 0 398 2 422 15 59 31 60 36 60 467
0 422 0 423 -53 462 -28 20 -39 21 -415 22 -213 1 -397 0 -409 -3z m725 -139
c22 -15 22 -16 22 -339 0 -281 -2 -326 -16 -339 -13 -14 -58 -16 -339 -16
-323 0 -324 0 -339 22 -14 19 -16 68 -16 335 0 300 1 314 20 333 19 19 33 20
333 20 267 0 316 -2 335 -16z"/>
</g>
</svg>
