<?xml version="1.0" standalone="no"?>
<!DOCTYPE svg PUBLIC "-//W3C//DTD SVG 20010904//EN"
 "http://www.w3.org/TR/2001/REC-SVG-20010904/DTD/svg10.dtd">
<svg version="1.0" xmlns="http://www.w3.org/2000/svg"
 width="24.000000pt" height="24.000000pt" viewBox="0 0 256.000000 256.000000"
 preserveAspectRatio="xMidYMid meet">
<metadata>
Created by potrace 1.16, written by Peter Selinger 2001-2019
</metadata>
<g transform="translate(0.000000,256.000000) scale(0.100000,-0.100000)"
fill="#000000" stroke="none">
<path d="M64 2338 c-12 -5 -27 -21 -33 -34 -15 -35 -16 -2047 0 -2076 26 -49
-5 -48 1254 -48 1266 0 1217 -2 1245 49 7 13 10 360 10 1041 l0 1022 -29 29
-29 29 -1199 -1 c-803 0 -1205 -4 -1219 -11z m2296 -999 l0 -841 -257 244
c-141 134 -287 272 -325 307 l-69 63 -206 -213 c-114 -118 -275 -283 -358
-367 l-150 -152 -329 2 -330 3 358 348 c197 191 361 347 365 347 4 0 60 -49
126 -110 66 -60 125 -109 130 -109 6 0 36 28 68 64 l57 64 -187 175 c-103 97
-191 176 -194 176 -3 0 -194 -182 -423 -405 -229 -223 -419 -405 -422 -405 -2
0 -4 371 -4 825 l0 825 1075 0 1075 0 0 -841z m-265 -843 l120 -115 -474 0
-474 -1 18 23 c11 12 113 117 229 234 l210 212 125 -119 c69 -65 180 -171 246
-234z"/>
<path d="M1975 2026 c-37 -17 -80 -62 -94 -99 -39 -102 31 -224 138 -242 157
-26 269 164 170 289 -46 58 -145 82 -214 52z"/>
</g>
</svg>
