<?xml version="1.0" standalone="no"?>
<!DOCTYPE svg PUBLIC "-//W3C//DTD SVG 20010904//EN"
 "http://www.w3.org/TR/2001/REC-SVG-20010904/DTD/svg10.dtd">
<svg version="1.0" xmlns="http://www.w3.org/2000/svg"
 width="24.000000pt" height="24.000000pt" viewBox="0 0 256.000000 256.000000"
 preserveAspectRatio="xMidYMid meet">
<metadata>
Created by potrace 1.16, written by Peter Selinger 2001-2019
</metadata>
<g transform="translate(0.000000,256.000000) scale(0.100000,-0.100000)"
fill="#000000" stroke="none">
<path d="M1068 2351 c-119 -26 -178 -47 -278 -96 -313 -157 -535 -459 -590
-808 -19 -117 -8 -318 24 -442 88 -341 350 -632 675 -749 734 -265 1502 293
1468 1064 -19 409 -243 757 -602 936 -158 79 -271 106 -460 110 -120 3 -167 0
-237 -15z m374 -105 c376 -67 673 -337 779 -706 11 -36 24 -116 31 -177 19
-181 -10 -336 -93 -508 -37 -77 -131 -215 -146 -215 -5 0 -25 33 -46 74 -69
134 -200 260 -343 330 -41 20 -79 36 -85 36 -6 0 20 29 58 64 106 99 163 222
163 356 0 284 -234 507 -513 488 -137 -10 -218 -46 -317 -142 -102 -99 -145
-214 -138 -365 8 -150 67 -269 174 -351 l55 -43 -54 -22 c-79 -32 -186 -106
-253 -175 -67 -70 -139 -169 -156 -217 -7 -18 -14 -33 -18 -33 -3 0 -28 33
-56 73 -344 483 -186 1153 336 1430 195 103 415 139 622 103z m-7 -405 c76
-37 147 -111 183 -189 22 -48 27 -71 27 -147 0 -78 -4 -98 -29 -152 -35 -77
-113 -154 -193 -191 -49 -22 -72 -27 -148 -27 -77 0 -98 4 -148 27 -106 50
-172 122 -207 228 -67 199 44 406 255 477 68 22 185 11 260 -26z m10 -846
c135 -35 274 -124 356 -227 23 -29 60 -90 82 -135 47 -98 49 -90 -67 -167
-105 -69 -174 -100 -288 -131 -282 -77 -594 -18 -824 156 -38 28 -71 53 -73
55 -8 7 43 111 86 176 124 189 360 306 588 293 44 -3 107 -12 140 -20z"/>
</g>
</svg>
