<svg t="1688548016207" class="icon" viewBox="0 0 1024 1024" version="1.1" xmlns="http://www.w3.org/2000/svg" p-id="4304"
    width="200" height="200">
    <path
        d="M512 64c247.424 0 448 200.576 448 448s-200.576 448-448 448S64 759.424 64 512 264.576 64 512 64z m2.432 566.357333c-11.626667 0-22.101333 3.477333-30.229333 11.626667-8.149333 7.552-12.224 17.450667-12.224 29.653333 0 11.626667 4.074667 21.525333 12.224 29.653334 8.128 8.149333 18.602667 12.224 30.229333 12.224s22.101333-4.053333 30.250667-11.626667c8.128-8.149333 12.8-18.026667 12.8-30.250667 0-12.202667-4.096-22.101333-12.224-29.653333-8.149333-8.149333-18.602667-11.626667-30.826667-11.626667z m10.453333-340.202666c-43.008 0-76.757333 12.202667-101.162666 37.226666-24.426667 24.405333-36.650667 57.557333-36.650667 100.010667 0 25.6 54.826667 34.325333 61.056 0 0-25.6 5.248-45.354667 15.701333-59.306667 11.648-16.853333 30.826667-25.002667 57.002667-25.002666 20.928 0 37.802667 5.802667 49.429333 17.429333 11.050667 11.648 16.853333 27.349333 16.853334 47.701333 0 15.104-5.802667 29.077333-16.277334 42.453334l-9.877333 11.050666-5.589333 4.970667c-32.746667 29.482667-52.970667 51.712-60.117334 67.136-8.149333 15.104-11.648 33.706667-11.648 55.253333v9.877334h62.229334v-9.898667l0.149333-5.162667c0.64-11.946667 3.562667-23.04 9.173333-33.216 5.226667-10.453333 13.354667-20.928 24.405334-30.229333 27.328-23.850667 43.626667-38.976 48.853333-45.354667 14.528-18.624 22.101333-42.453333 22.101333-70.954666 0-34.901333-11.626667-62.805333-34.901333-83.157334-23.253333-20.949333-53.504-30.826667-90.709333-30.826666z"
        fill="#adb53b" p-id="4305" data-spm-anchor-id="a313x.7781069.0.i2" class="selected"></path>
</svg>