<svg t="1690615205775" class="icon" viewBox="0 0 1213 1024" version="1.1" xmlns="http://www.w3.org/2000/svg" p-id="5902">
    <path d="M1213.62963 1024H0V0h1213.62963zM75.851852 948.148148h1061.925926V75.851852H75.851852z" fill="#2c2c2c"
        p-id="5903" data-spm-anchor-id="a313x.7781069.0.i3" class="selected"></path>
    <path
        d="M541.961481 1013.001481L303.407407 774.068148l-238.554074 238.933333-53.854814-53.854814L303.407407 667.117037l292.408889 292.02963-53.854815 53.854814z"
        fill="#2c2c2c" p-id="5904" data-spm-anchor-id="a313x.7781069.0.i5" class="selected"></path>
    <path
        d="M1148.776296 1013.001481L758.518519 622.364444l-276.48 276.85926-53.854815-53.854815 330.334815-329.955556 444.112592 443.733334-53.854815 53.854814zM455.111111 530.962963a151.703704 151.703704 0 1 1 151.703704-151.703704 151.703704 151.703704 0 0 1-151.703704 151.703704z m0-227.555556a75.851852 75.851852 0 1 0 75.851852 75.851852 75.851852 75.851852 0 0 0-75.851852-75.851852z"
        fill="#2c2c2c" p-id="5905" data-spm-anchor-id="a313x.7781069.0.i4" class="selected"></path>
</svg>